<?xml version="1.0" encoding="utf-8"?>
<!DOCTYPE svg PUBLIC "-//W3C//DTD SVG 1.1//EN" "http://www.w3.org/Graphics/SVG/1.1/DTD/svg11.dtd">
<svg version="1.1" xmlns="http://www.w3.org/2000/svg" xmlns:xlink="http://www.w3.org/1999/xlink" x="0px" y="0px" width="15px" height="16px"
	 viewBox="0 0 15 16" enable-background="new 0 0 15 16" xml:space="preserve" aria-labelledby="title desc" aria-describedby="desc" role="img">
	<!-- M. Providenti 2018, Audio icon -->
	<title id="title">Audio</title>
	<desc id="desc">This icon identifies resources containing audio content.</desc>
	
	<!-- a xlink:href="http://example.com" tabindex="0" role="link" --> <!-- /a -->
	<!-- speaker -->
	<g id="layer1">
		<path fill="#4B0049" d="M6.667,7.978c0,1.93,0.002,3.86-0.004,5.79c0,0.154-0.028,0.33-0.085,0.456
			c-0.137,0.304-0.418,0.32-0.624,0.063C5.077,13.193,4.2,12.1,3.326,11.002c-0.088-0.11-0.174-0.159-0.291-0.158
			c-0.751,0.007-1.501,0.004-2.252,0.003c-0.363,0-0.517-0.222-0.517-0.746c0-1.437,0-2.874,0-4.311
			c0-0.517,0.153-0.737,0.509-0.737c0.78,0,1.56,0.003,2.339-0.005c0.071-0.001,0.156-0.045,0.209-0.111
			c0.873-1.08,1.743-2.168,2.614-3.252C6.206,1.352,6.561,1.469,6.649,1.92c0.018,0.09,0.017,0.19,0.017,0.285
			C6.667,4.129,6.667,6.054,6.667,7.978z"/>
	</g>
	<!-- right wave -->
	<g id="layer2">	
		<path fill="#4B0049" d="M14.733,7.794c-0.02,2.671-0.734,4.858-2.125,6.796c-0.21,0.292-0.575,0.356-0.846,0.146
			c-0.264-0.204-0.318-0.578-0.129-0.888c0.294-0.482,0.638-0.937,0.874-1.449c1.616-3.509,1.357-6.868-0.765-10.059
			c-0.059-0.089-0.126-0.172-0.175-0.267c-0.14-0.271-0.073-0.607,0.15-0.795c0.232-0.195,0.558-0.185,0.775,0.029
			c0.052,0.052,0.097,0.113,0.141,0.174c1.094,1.518,1.77,3.224,2.008,5.123C14.699,7.073,14.715,7.548,14.733,7.794z"/>
	</g>
	<!-- middle wave -->
	<g id="layer3">
		<path fill="#4B0049" d="M12.009,8.286c-0.01,1.47-0.417,3.001-1.23,4.376c-0.152,0.257-0.352,0.353-0.575,0.283
			c-0.188-0.059-0.333-0.261-0.362-0.508c-0.024-0.201,0.051-0.363,0.143-0.52c0.486-0.822,0.804-1.73,0.939-2.727
			c0.242-1.8-0.071-3.45-0.929-4.953C9.927,4.119,9.859,3.989,9.834,3.853c-0.053-0.281,0.071-0.54,0.284-0.653
			c0.221-0.118,0.451-0.052,0.605,0.194c0.399,0.638,0.706,1.337,0.923,2.093C11.888,6.332,12.008,7.188,12.009,8.286z"/>
	</g>
	<!-- left wave -->
	<g id="layer4">
		<path fill="#4B0049" d="M8.25,8.179C8.232,7.23,8.07,6.488,7.703,5.816C7.541,5.52,7.602,5.142,7.835,4.958
			c0.246-0.194,0.548-0.113,0.718,0.208c0.362,0.683,0.585,1.428,0.664,2.23c0.12,1.23-0.095,2.377-0.625,3.443
			c-0.109,0.218-0.257,0.351-0.476,0.345c-0.389-0.011-0.609-0.495-0.407-0.912C7.903,9.87,8.072,9.456,8.147,9
			C8.201,8.679,8.229,8.352,8.25,8.179z"/>
	</g>
	<text style="visibility:hidden;">Audio</text>
</svg>
