<?xml version="1.0" encoding="utf-8"?>
<!DOCTYPE svg PUBLIC "-//W3C//DTD SVG 1.1//EN" "http://www.w3.org/Graphics/SVG/1.1/DTD/svg11.dtd">
<svg version="1.1" xmlns="http://www.w3.org/2000/svg" xmlns:xlink="http://www.w3.org/1999/xlink" x="0px" y="0px" width="18px" height="16px"
	 viewBox="0 0 18 16" enable-background="new 0 0 18 16" xml:space="preserve" aria-labelledby="title desc" aria-describedby="desc" role="img">
	<!-- FDLP icon -->
	<title id="title">Federal Depository Library Icon</title>
	<desc id="desc">This icon identifies US government materials and content.</desc>
	
	<!-- a xlink:href="http://example.com" tabindex="0" role="link" --> <!-- /a -->

	<!-- blue background -->
		<g id="layer1">
			<path fill="#1E3162" d="M8.596,15.831c-0.682-0.063-1.055-0.122-1.506-0.237
				c-1.519-0.39-2.813-1.135-3.955-2.276c-1.663-1.663-2.613-3.794-2.818-6.32C0.293,6.701,0.276,5.164,0.276,3.351V0.217H9.05
				h8.774l0.026,0.246c0.042,0.4,0.029,6.011-0.016,6.534c-0.141,1.677-0.52,2.98-1.245,4.284c-1.453,2.613-3.935,4.275-6.774,4.536
				C9.401,15.855,8.912,15.86,8.596,15.831z"/>
		</g>
	<!-- main part of eagle -->
		<g id="layer2">
			<path fill="#FFFFFF" d="M9.73,15.339c0.966-0.08,2.42-0.548,3.316-1.065c1.508-0.872,2.676-2.144,3.482-3.797
				c0.44-0.902,0.66-2.185,0.661-3.867c0.001-0.759-0.012-0.936-0.1-1.415c-0.27-1.46-1.002-2.854-2.013-3.829
				c-0.235-0.227-0.283-0.296-0.294-0.419c-0.021-0.249-0.011-0.248-1.926-0.249c-1.497-0.001-1.731,0.008-1.85,0.064
				c-0.195,0.092-0.25,0.381-0.076,0.395c0.215,0.017,0.376,0.071,0.54,0.18c0.213,0.142,0.359,0.151,0.64,0.04
				c0.261-0.103,0.392-0.101,0.507,0.007c0.068,0.064,0.093,0.131,0.093,0.255c0,0.224-0.073,0.279-0.364,0.274
				C12.088,1.908,11.84,1.804,11.43,1.53c-0.355-0.237-0.432-0.237-1.194,0.007C9.655,1.724,9.575,1.76,9.51,1.867
				C9.371,2.096,9.37,2.329,9.507,2.728C9.575,2.925,9.63,3.123,9.63,3.167c0,0.054,0.035,0.09,0.107,0.108
				c0.088,0.022,0.124,0.006,0.201-0.093c0.143-0.183,0.317-0.224,0.621-0.146c0.458,0.117,0.768,0.301,1.267,0.752
				c0.274,0.248,0.589,1.066,0.686,1.781c0.065,0.482,0.029,1.286-0.076,1.689c-0.29,1.118-0.945,2.115-1.754,2.673
				c-0.179,0.123-0.672,0.363-0.89,0.432c-0.287,0.091-0.971,0.113-1.309,0.04C7.8,10.258,7.016,9.712,6.48,9.007
				C6.296,8.764,6.097,8.225,6.027,7.775C5.97,7.41,6.002,6.759,6.092,6.457c0.232-0.775,0.904-1.509,1.766-1.926
				c0.468-0.226,0.604-0.405,0.555-0.729C8.379,3.575,8.27,3.408,8.063,3.267L7.89,3.148L4.25,3.133L0.61,3.117l0.004,0.717
				l0.004,0.717l0.145,0.133l0.145,0.133H3.13c1.221,0,2.221,0.006,2.221,0.013c0,0.007-0.081,0.155-0.18,0.329
				c-0.568,0.997-0.72,2.086-0.459,3.298c0.099,0.461,0.49,1.233,0.886,1.748c0.578,0.753,1.52,1.349,2.433,1.541
				c0.412,0.086,1.179,0.114,1.651,0.06l0.271-0.031l-0.144,0.201c-0.264,0.367-0.522,1.101-0.682,1.939
				c-0.08,0.42-0.3,0.996-0.452,1.186c-0.067,0.084-0.122,0.17-0.122,0.193c0,0.022,0.13,0.047,0.29,0.054
				C9,15.355,9.166,15.364,9.21,15.368C9.254,15.372,9.488,15.359,9.73,15.339z"/>
		</g>
		<!-- white wings/feathers -->
		<g id="layer3">
			<path fill="#FFFFFF" d="M7.987,15.177c0.177-0.051,0.392-0.257,0.481-0.461c0.038-0.088,0.119-0.385,0.18-0.66
				c0.111-0.503,0.265-0.954,0.497-1.449c0.069-0.147,0.125-0.275,0.125-0.283s-0.103-0.018-0.23-0.022
				c-0.127-0.004-0.382-0.035-0.568-0.069c-0.186-0.034-0.394-0.052-0.461-0.039c-0.193,0.036-0.828,0.722-1.259,1.36
				c-0.236,0.35-0.549,0.605-0.971,0.794c-0.148,0.066-0.26,0.134-0.25,0.15c0.063,0.103,0.987,0.417,1.819,0.619
				C7.799,15.226,7.811,15.227,7.987,15.177z"/>
			<path fill="#FFFFFF" d="M5.445,14.016c0.417-0.244,0.642-0.454,0.895-0.834
				c0.254-0.382,0.409-0.541,0.838-0.855c0.158-0.116,0.289-0.224,0.29-0.239c0.001-0.015-0.083-0.066-0.188-0.112
				c-0.2-0.088-0.618-0.332-0.944-0.55c-0.226-0.151-0.43-0.168-0.82-0.069c-0.229,0.059-0.886,0.389-1.226,0.617
				c-0.475,0.318-0.8,0.442-1.173,0.447c-0.136,0.002-0.247,0.011-0.247,0.021c0,0.151,0.502,0.646,1.13,1.114
				c0.579,0.432,0.898,0.62,1.048,0.62C5.119,14.176,5.286,14.109,5.445,14.016z"/>
			<path fill="#FFFFFF" d="M3.241,12.03c0.07-0.036,0.263-0.159,0.428-0.273c0.644-0.445,1.298-0.729,1.77-0.769
				c0.148-0.013,0.27-0.029,0.27-0.037c0-0.027-0.97-1.272-1.092-1.402C4.372,9.286,3.72,9.28,3.203,9.534
				C2.82,9.723,2.382,9.825,1.95,9.827C1.669,9.828,1.534,9.81,1.439,9.761C1.356,9.718,1.309,9.71,1.309,9.739
				c0,0.083,0.842,1.729,0.982,1.919C2.573,12.042,2.94,12.186,3.241,12.03z"/>
			<path fill="#FFFFFF" d="M1.869,9.398c0.757-0.171,1.73-0.356,1.949-0.371c0.176-0.012,0.286,0.001,0.376,0.046
				c0.07,0.035,0.133,0.058,0.14,0.051c0.007-0.007-0.024-0.111-0.068-0.23C4.223,8.774,4.163,8.46,4.135,8.196
				c-0.028-0.264-0.073-0.52-0.1-0.57c-0.027-0.049-0.125-0.13-0.217-0.18C3.656,7.36,3.601,7.355,2.369,7.336
				c-1.134-0.018-1.3-0.029-1.452-0.095C0.823,7.2,0.736,7.176,0.725,7.188c-0.02,0.02,0.1,0.812,0.244,1.62
				c0.068,0.379,0.099,0.45,0.246,0.565C1.341,9.472,1.511,9.479,1.869,9.398z"/>
			<path fill="#FFFFFF" d="M4.069,6.981c0-0.162,0.111-0.746,0.186-0.978c0.057-0.176,0.057-0.208-0.003-0.365
				C4.124,5.302,4.205,5.319,2.575,5.296l-1.446-0.02l-0.294-0.13l-0.294-0.13l0.027,0.33c0.053,0.632,0.137,1.19,0.201,1.324
				c0.035,0.074,0.109,0.155,0.164,0.18C1.001,6.881,1.43,6.896,2.269,6.896c1.238,0,1.589,0.03,1.682,0.143
				C4.026,7.128,4.069,7.107,4.069,6.981z"/>
		</g>
		
		<!-- white book background -->
		<g id="layer4">
			<path fill="#FFFFFF" d="M8.836,9.118C8.98,8.935,9.268,8.947,9.428,9.143c0.057,0.07,0.119,0.075,0.862,0.064
				l0.8-0.011l0.01-1.79l0.01-1.79h-0.28h-0.28v-0.34c0-0.392,0.005-0.389-0.412-0.28c-0.32,0.083-0.606,0.237-0.826,0.443
				L9.124,5.614L8.967,5.453C8.763,5.244,8.471,5.079,8.164,5C7.745,4.892,7.755,4.886,7.741,5.266L7.73,5.596L7.44,5.608L7.15,5.62
				v1.772c0,0.974,0.012,1.784,0.027,1.798c0.015,0.015,0.377,0.027,0.804,0.027h0.778L8.836,9.118z"/>
		</g>
		<!-- red book -->
		<g id="layer5">
			<path fill="#C42038" d="M7.55,7.489c0-1.393,0.002-1.42,0.08-1.42c0.078,0,0.08,0.027,0.08,1.2v1.2h0.213
				c0.117,0,0.302,0.03,0.41,0.067C8.522,8.601,8.99,8.854,8.99,8.891c0,0.01-0.324,0.018-0.72,0.018H7.55V7.489z"/>
			<path fill="#C42038" d="M9.41,8.807c0.374-0.232,0.582-0.31,0.884-0.329l0.298-0.019l-0.011-1.195L10.57,6.069
				l0.11,0l0.11,0v1.42v1.42l-0.77-0.001L9.25,8.907L9.41,8.807z"/>
			<path fill="#C42038" d="M8.85,8.323C8.693,8.205,8.31,8.029,8.211,8.029H8.11V6.785V5.54l0.15,0.027
				c0.205,0.037,0.466,0.196,0.589,0.357l0.102,0.134L8.94,7.221C8.93,8.375,8.929,8.383,8.85,8.323z"/>
			<path fill="#C42038" d="M9.39,7.221c0-1.041,0.008-1.185,0.068-1.273c0.125-0.181,0.375-0.333,0.624-0.38
				L10.23,5.54v1.244v1.244h-0.101c-0.105,0-0.435,0.151-0.629,0.288L9.39,8.395V7.221z"/>
		</g>
		<text style="visibility:hidden;">Federal Depository Library: US Government materials</text>
</svg>
