<?xml version="1.0" encoding="utf-8"?>
<!DOCTYPE svg PUBLIC "-//W3C//DTD SVG 1.1//EN" "http://www.w3.org/Graphics/SVG/1.1/DTD/svg11.dtd">
<svg version="1.1" xmlns="http://www.w3.org/2000/svg" xmlns:xlink="http://www.w3.org/1999/xlink" x="0px" y="0px" width="16px"
	 height="16px" viewBox="0 0 16 16" enable-background="new 0 0 16 16" xml:space="preserve" aria-labelledby="title desc" aria-describedby="desc" role="img">
	<!-- KYVL icon -->
	<title id="title">KYVL</title>
	<desc id="desc">This icon identifies KYVL subscriptions.</desc>
	
	<!-- a xlink:href="http://example.com" tabindex="0" role="link" --> <!-- /a -->

	<!-- green background k -->
	<g id="layer1">
		<path fill="#B2BB1D" d="M7.439,7.512c0,0.055-0.045,0.1-0.1,0.1H0.52c-0.055,0-0.1-0.045-0.1-0.1V0.691c0-0.055,0.045-0.1,0.1-0.1
		h6.819c0.055,0,0.1,0.045,0.1,0.1V7.512z"/>
	</g>
	<!-- red background y -->
	<g id="layer2">
		<path fill="#EC1B2F" d="M15.58,7.512c0,0.055-0.045,0.1-0.1,0.1H8.661c-0.055,0-0.1-0.045-0.1-0.1V0.691c0-0.055,0.045-0.1,0.1-0.1
		h6.819c0.055,0,0.1,0.045,0.1,0.1V7.512z"/>
	</g>
	<!-- blue background v -->
	<g id="layer3">
		<path fill="#01AEC5" d="M7.44,15.653c0,0.055-0.045,0.1-0.1,0.1H0.521c-0.055,0-0.1-0.045-0.1-0.1V8.832c0-0.055,0.045-0.1,0.1-0.1
		H7.34c0.055,0,0.1,0.045,0.1,0.1V15.653z"/>
	</g>
	<!-- orange background l -->
	<g id="layer4">
		<path fill="#F7981E" d="M15.58,15.652c0,0.055-0.045,0.1-0.1,0.1H8.661c-0.055,0-0.1-0.045-0.1-0.1V8.831
		c0-0.055,0.045-0.1,0.1-0.1h6.819c0.055,0,0.1,0.045,0.1,0.1V15.652z"/>
	</g>
	<!-- letter k -->
	<g id="layer5">
		<path fill="#FFFFFF" d="M1.651,4.103c0,0.873,0,1.747,0,2.62c0,0.134,0.045,0.179,0.177,0.179c0.205,0,0.41,0,0.614,0
			c0.171,0,0.206-0.036,0.206-0.208c0-0.672,0.001-1.344-0.002-2.016c0-0.074,0.017-0.1,0.094-0.097
			c0.144,0.006,0.29,0.017,0.431-0.002c0.207-0.027,0.349,0.04,0.434,0.23C3.622,4.844,3.65,4.873,3.672,4.905
			c0.429,0.62,0.859,1.24,1.287,1.862C5.009,6.838,5.066,6.899,5.157,6.9C5.483,6.903,5.81,6.902,6.136,6.902
			c0.067,0,0.082-0.042,0.065-0.097c-0.008-0.027-0.027-0.05-0.044-0.074c-0.596-0.844-1.191-1.687-1.79-2.529
			C4.319,4.135,4.316,4.091,4.366,4.021c0.601-0.848,1.197-1.699,1.795-2.549c0.027-0.039,0.065-0.078,0.04-0.13
			C6.175,1.285,6.118,1.305,6.073,1.305C5.791,1.303,5.51,1.306,5.228,1.303C5.112,1.302,5.031,1.346,4.964,1.444
			C4.484,2.146,4,2.845,3.52,3.547C3.483,3.601,3.445,3.622,3.38,3.621c-0.211-0.005-0.422-0.006-0.633,0
			c-0.081,0.002-0.1-0.021-0.1-0.1C2.65,2.852,2.649,2.184,2.649,1.515c0-0.173-0.036-0.21-0.205-0.21c-0.198,0-0.397,0-0.595,0
			c-0.16,0-0.198,0.039-0.198,0.197C1.651,2.369,1.651,3.236,1.651,4.103z"/>
		<text style="visibility:hidden;">K</text>
	</g>
	<!-- letter y -->
	<g id="layer6">
		<path fill="#FFFFFF" d="M12.072,3.607c-0.023-0.034-0.038-0.055-0.052-0.076c-0.448-0.692-0.897-1.384-1.343-2.077
			c-0.067-0.105-0.151-0.155-0.276-0.153c-0.272,0.004-0.544,0.001-0.816,0.002c-0.046,0-0.1-0.013-0.127,0.043
			C9.434,1.396,9.47,1.431,9.494,1.468c0.676,1.036,1.352,2.071,2.03,3.106c0.035,0.053,0.051,0.106,0.05,0.169
			c-0.002,0.662-0.001,1.325-0.001,1.987c0,0.128,0.045,0.172,0.173,0.172c0.208,0.001,0.416,0,0.624,0
			c0.163,0,0.201-0.039,0.201-0.205c0-0.656,0.001-1.312-0.001-1.968c0-0.057,0.013-0.104,0.044-0.152
			c0.225-0.338,0.446-0.678,0.668-1.018c0.455-0.696,0.909-1.391,1.363-2.087c0.026-0.039,0.064-0.078,0.036-0.131
			c-0.029-0.053-0.083-0.038-0.13-0.038c-0.278-0.001-0.557,0-0.835-0.001c-0.105,0-0.18,0.039-0.238,0.131
			c-0.294,0.461-0.592,0.919-0.889,1.378C12.42,3.072,12.249,3.334,12.072,3.607z"/>
		<text style="visibility:hidden;">Y</text>
	</g>
	<!-- letter v -->
	<g id="layer7">
		<path fill="#FFFFFF" d="M3.931,13.804c-0.019-0.04-0.029-0.06-0.037-0.08c-0.577-1.372-1.154-2.743-1.728-4.116
			C2.114,9.485,2.033,9.438,1.907,9.44c-0.234,0.003-0.467,0-0.701,0.001c-0.144,0-0.177,0.051-0.121,0.182
			c0.325,0.765,0.651,1.531,0.976,2.296c0.42,0.988,0.841,1.976,1.259,2.965c0.047,0.11,0.115,0.165,0.24,0.162
			c0.249-0.006,0.499-0.004,0.749-0.001c0.115,0.002,0.181-0.046,0.226-0.152c0.406-0.96,0.815-1.918,1.223-2.877
			c0.34-0.8,0.681-1.601,1.02-2.402C6.83,9.492,6.794,9.44,6.662,9.439c-0.24-0.001-0.48,0.001-0.72-0.001
			c-0.121,0.001-0.197,0.05-0.244,0.164c-0.481,1.149-0.965,2.297-1.448,3.445C4.146,13.293,4.043,13.539,3.931,13.804z"/>
		<text style="visibility:hidden;">V</text>
	</g>
	<!-- letter l -->
	<g id="layer8">
		<path fill="#FFFFFF" d="M10.391,12.237c0,0.876,0,1.753,0,2.629c0,0.126,0.044,0.178,0.159,0.178c1.014,0.001,2.028,0.001,3.042,0
			c0.109,0,0.157-0.049,0.158-0.158c0.001-0.163,0-0.326,0-0.489c0-0.169-0.033-0.203-0.2-0.203c-0.684,0-1.369-0.002-2.053,0.002
			c-0.095,0.001-0.114-0.026-0.114-0.116c0.003-1.481,0.002-2.962,0.002-4.442c0-0.154-0.045-0.199-0.2-0.199
			c-0.198,0-0.397,0-0.595,0c-0.156,0-0.2,0.044-0.2,0.198C10.391,10.504,10.391,11.371,10.391,12.237z"/>
		<text style="visibility:hidden;">L</text>
	</g>
</svg>
