<?xml version="1.0" encoding="utf-8"?>
<!DOCTYPE svg PUBLIC "-//W3C//DTD SVG 1.1//EN" "http://www.w3.org/Graphics/SVG/1.1/DTD/svg11.dtd">
<svg version="1.1" xmlns="http://www.w3.org/2000/svg" xmlns:xlink="http://www.w3.org/1999/xlink" x="0px" y="0px" width="12px" height="16px"
	 viewBox="0 0 12 16" enable-background="new 0 0 12 16" xml:space="preserve" aria-labelledby="title desc" aria-describedby="desc" role="img">
	<!-- Local resource icon -->
	<title id="title">Local Resources</title>
	<desc id="desc">This icon identifies NKU generated materials.</desc>
	
	<!-- a xlink:href="http://example.com" tabindex="0" role="link" --> <!-- /a -->

	<!-- gold background -->
	<g id="layer1">
		<path fill="#FFC612" d="M6,0.168c-2.928,0-5.31,2.382-5.31,5.31c0,1.177,0.693,2.966,2.18,5.631
			c1.015,1.819,2.025,3.355,2.068,3.419l0.73,1.107C5.742,15.746,5.866,15.814,6,15.814s0.258-0.067,0.332-0.179l0.73-1.107
			c0.042-0.064,1.045-1.587,2.068-3.419c1.487-2.665,2.18-4.454,2.18-5.631C11.31,2.55,8.928,0.168,6,0.168z"/>
	</g>
	<!-- black outline -->
	<g id="layer2">
		<path fill="#010101" d="M6,0.177c-2.928,0-5.31,2.382-5.31,5.31c0,1.177,0.693,2.966,2.18,5.631
			c1.015,1.819,2.025,3.355,2.068,3.419l0.73,1.107C5.742,15.756,5.866,15.823,6,15.823s0.258-0.067,0.332-0.179l0.73-1.107
			c0.042-0.064,1.045-1.587,2.068-3.419c1.487-2.665,2.18-4.454,2.18-5.631C11.31,2.559,8.928,0.177,6,0.177z M8.435,10.73
			c-1.008,1.807-1.995,3.306-2.037,3.369L6,14.703l-0.398-0.603c-0.042-0.063-1.036-1.576-2.037-3.369
			c-1.38-2.472-2.079-4.236-2.079-5.243c0-2.489,2.025-4.514,4.514-4.514s4.514,2.025,4.514,4.514
			C10.514,6.494,9.815,8.258,8.435,10.73z"/>
	</g>
	<!-- white center -->
	<g id="layer3">
		<path fill="#FFFFFF" d="M6,2.255c-1.623,0-2.944,1.321-2.944,2.944S4.377,8.143,6,8.143s2.944-1.321,2.944-2.944
			S7.623,2.255,6,2.255z"/>
	</g>
	<!-- black center border -->
	<g id="layer4">
		<path fill="#010101" d="M6,2.223c-1.623,0-2.944,1.321-2.944,2.944S4.377,8.111,6,8.111s2.944-1.321,2.944-2.944
			S7.623,2.223,6,2.223z M6,7.316c-1.185,0-2.148-0.964-2.148-2.148S4.815,3.019,6,3.019c1.185,0,2.148,0.964,2.148,2.148
			S7.185,7.316,6,7.316z"/>
	</g>
	<text style="visibility:hidden;">Local Resources </text>
</svg>
