<?xml version="1.0" encoding="utf-8"?>
<!DOCTYPE svg PUBLIC "-//W3C//DTD SVG 1.1//EN" "http://www.w3.org/Graphics/SVG/1.1/DTD/svg11.dtd">
<svg version="1.1" xmlns="http://www.w3.org/2000/svg" xmlns:xlink="http://www.w3.org/1999/xlink" x="0px" y="0px" width="11px" height="16px"
	 viewBox="0 0 11 16" enable-background="new 0 0 11 16" xml:space="preserve" aria-labelledby="title desc" aria-describedby="desc" role="img">
	<!-- PLoS Open Access icon -->
	<title id="title">Open Access</title>
	<desc id="desc">This icon identifies open access resources.</desc>
	
	<!-- a xlink:href="http://example.com" tabindex="0" role="link" --> <!-- /a -->
	
	<!-- Main Lock -->
	<g id="layer1">
		<path fill="#F58220" d="M9.749,8.46c1.135,1.995,0.713,4.537-1.007,6.059c-1.065,0.942-2.317,1.344-3.717,1.211
			c-2.161-0.205-3.807-1.769-4.279-3.739c-0.545-2.275,0.688-4.74,2.852-5.612C5.026,5.803,6.436,5.877,7.813,6.57
			C7.87,6.599,7.929,6.624,8.005,6.66c0.008-0.069,0.017-0.118,0.017-0.168c0.001-0.709,0.007-1.417-0.002-2.126
			C8.008,3.299,7.356,2.363,6.349,2.014C4.746,1.459,3.209,2.553,3.029,4.041C2.995,4.328,2.993,4.618,2.975,4.919
			c-0.525,0-1.045,0-1.589,0C1.373,4.438,1.352,3.964,1.47,3.499c0.436-1.722,1.524-2.834,3.257-3.172
			c2.378-0.464,4.424,1.1,4.851,3.317c0.057,0.296,0.058,0.605,0.06,0.908c0.006,1.172-0.001,2.344,0.007,3.516
			C9.646,8.2,9.684,8.346,9.749,8.46z M8.759,10.884c0.014-1.809-1.505-3.298-3.262-3.267c-1.814,0.009-3.26,1.466-3.259,3.272
			c0,1.799,1.542,3.289,3.304,3.251C7.311,14.102,8.744,12.68,8.759,10.884z"/>
	</g>
	<!-- White center of Lock -->
	<g id="layer2">
		<path fill="#FFFFFF" d="M5.497,7.618c1.756-0.032,3.276,1.458,3.262,3.267c-0.014,1.795-1.447,3.218-3.217,3.256
			c-1.762,0.038-3.304-1.452-3.304-3.251C2.237,9.084,3.683,7.626,5.497,7.618z M5.526,12.243
			c0.749-0.001,1.338-0.597,1.336-1.354c-0.001-0.753-0.588-1.367-1.337-1.358c-0.82,0.009-1.369,0.662-1.359,1.36
			C4.176,11.654,4.761,12.244,5.526,12.243z"/>
	</g>
	<!-- Orange center of Lock -->
	<g id="layer3">
		<path fill="#F58220" d="M6.862,10.889c0.001,0.756-0.587,1.352-1.336,1.354c-0.765,0.002-1.35-0.589-1.36-1.352
			c-0.01-0.697,0.54-1.351,1.359-1.36C6.274,9.522,6.861,10.136,6.862,10.889z"/>	
	</g>
	<text style="visibility:hidden;">Open Access</text>
</svg>
