<?xml version="1.0" encoding="utf-8"?>
<!DOCTYPE svg PUBLIC "-//W3C//DTD SVG 1.1//EN" "http://www.w3.org/Graphics/SVG/1.1/DTD/svg11.dtd">
<svg version="1.1" xmlns="http://www.w3.org/2000/svg" xmlns:xlink="http://www.w3.org/1999/xlink" x="0px" y="0px" width="17px" height="16px"
	 viewBox="0 0 17 16" enable-background="new 0 0 17 16" xml:space="preserve" aria-labelledby="title desc" aria-describedby="desc" role="img">
	<!-- Recommended Resource icon -->
	<title id="title">Recommended Resource</title>
	<desc id="desc">This icon identifies recommended resources.</desc>
	
	<!-- a xlink:href="http://example.com" tabindex="0" role="link" --> <!-- /a -->
	
	<!-- gold center -->
	<g id="layer1">
		<path fill="#FFC82F" d="M11.318,12.944c-0.88-0.62-1.76-1.22-2.62-1.84c-0.16-0.11-0.25-0.1-0.4,0
			c-0.87,0.62-1.75,1.23-2.62,1.84c-0.05,0.04-0.1,0.07-0.19,0.12c0.16-0.54,0.31-1.04,0.47-1.54c0.18-0.61,0.36-1.22,0.55-1.83
			c0.05-0.14,0.01-0.22-0.11-0.3c-0.86-0.65-1.73-1.3-2.59-1.95c-0.05-0.03-0.09-0.07-0.17-0.14c1.17,0,2.29,0,3.41,0.01
			c0.2,0,0.28-0.06,0.35-0.25c0.33-1.02,0.68-2.03,1.02-3.05c0.02-0.06,0.04-0.11,0.08-0.22c0.08,0.21,0.14,0.37,0.19,0.54
			c0.31,0.92,0.62,1.84,0.92,2.76c0.06,0.16,0.13,0.22,0.31,0.22c1.06-0.01,2.12-0.01,3.18-0.01c0.07,0,0.14,0,0.26,0
			c-0.08,0.07-0.13,0.11-0.17,0.15c-0.86,0.64-1.72,1.29-2.58,1.93c-0.14,0.1-0.16,0.18-0.11,0.34c0.33,1.06,0.65,2.13,0.97,3.19
			c0.01,0.04,0.01,0.07,0.03,0.14C11.418,13.004,11.368,12.974,11.318,12.944z"/>
	</g>
	
	<!-- black outline -->
	<g id="layer2">
		<path d="M8.578,0.484c0.62,1.82,1.23,3.64,1.84,5.46c0.06,0.19,0.14,0.24,0.33,0.24c1.91-0.01,3.82,0,5.72,0
			c0.08,0,0.15,0,0.22,0c0.01,0.01,0.01,0.02,0.02,0.04c-0.31,0.22-0.61,0.45-0.91,0.68c-1.3,0.97-2.59,1.95-3.89,2.91
			c-0.13,0.1-0.15,0.18-0.11,0.33c0.56,1.83,1.11,3.66,1.67,5.49c0.02,0.06,0.03,0.12,0.06,0.23c-0.36-0.26-0.69-0.48-1.01-0.71
			c-1.29-0.9-2.58-1.8-3.87-2.7c-0.12-0.09-0.19-0.08-0.31,0c-1.55,1.09-3.11,2.18-4.66,3.26c-0.06,0.04-0.12,0.08-0.21,0.14
			c0.6-1.99,1.19-3.95,1.78-5.91c-1.65-1.24-3.3-2.48-4.95-3.72c0-0.02,0.01-0.03,0.02-0.04c0.07,0,0.15,0,0.22,0
			c1.91,0,3.83-0.01,5.74,0c0.17,0,0.24-0.05,0.29-0.21c0.61-1.83,1.23-3.66,1.85-5.48c0.02-0.06,0.04-0.12,0.08-0.22
			C8.528,0.364,8.558,0.424,8.578,0.484z M8.698,11.104c0.86,0.62,1.74,1.22,2.62,1.84c0.05,0.03,0.1,0.06,0.18,0.11
			c-0.02-0.07-0.02-0.1-0.03-0.14c-0.32-1.06-0.64-2.13-0.97-3.19c-0.05-0.16-0.03-0.24,0.11-0.34c0.86-0.64,1.72-1.29,2.58-1.93
			c0.04-0.04,0.09-0.08,0.17-0.15c-0.12,0-0.19,0-0.26,0c-1.06,0-2.12,0-3.18,0.01c-0.18,0-0.25-0.06-0.31-0.22
			c-0.3-0.92-0.61-1.84-0.92-2.76c-0.05-0.17-0.11-0.33-0.19-0.54c-0.04,0.11-0.06,0.16-0.08,0.22
			c-0.34,1.02-0.69,2.03-1.02,3.05c-0.07,0.19-0.15,0.25-0.35,0.25c-1.12-0.01-2.24-0.01-3.41-0.01
			c0.08,0.07,0.12,0.11,0.17,0.14c0.86,0.65,1.73,1.3,2.59,1.95c0.12,0.08,0.16,0.16,0.11,0.3c-0.19,0.61-0.37,1.22-0.55,1.83
			c-0.16,0.5-0.31,1-0.47,1.54c0.09-0.05,0.14-0.08,0.19-0.12c0.87-0.61,1.75-1.22,2.62-1.84
			C8.448,11.004,8.538,10.994,8.698,11.104z"/>
	</g>
	<text style="visibility:hidden;">Recommended Resources</text>
</svg>
