<?xml version="1.0" encoding="utf-8"?>
<!DOCTYPE svg PUBLIC "-//W3C//DTD SVG 1.1//EN" "http://www.w3.org/Graphics/SVG/1.1/DTD/svg11.dtd">
<svg version="1.1" xmlns="http://www.w3.org/2000/svg" xmlns:xlink="http://www.w3.org/1999/xlink" x="0px" y="0px" width="17px" height="16px"
	 viewBox="0 0 17 16" enable-background="new 0 0 17 16" xml:space="preserve" aria-labelledby="title desc" aria-describedby="desc" role="img">
	<!-- Web/Globe icon -->
	<title id="title">Web Resource</title>
	<desc id="desc">This icon identifies a web resource.</desc>
	
	<!-- a xlink:href="http://example.com" tabindex="0" role="link" --> <!-- /a -->
	<!-- globe -->
	<g id="layer1">
		<path fill="#4899C3" d="M7.718,0.162c0.523,0,1.045,0,1.568,0c0.087,0.025,0.172,0.061,0.26,0.073
			c4.646,0.627,7.704,5.165,6.546,9.716c-0.824,3.237-3.658,5.635-6.998,5.868c-2.61,0.182-6.259-0.956-7.774-4.755
			c-0.291-0.731-0.442-1.518-0.658-2.279c0-0.523,0-1.045,0-1.568c0.023-0.072,0.056-0.143,0.068-0.217
			c0.543-3.223,2.31-5.42,5.44-6.458C6.673,0.376,7.201,0.287,7.718,0.162z M14.251,3.947c-0.56,0.283-1.113,0.548-1.648,0.845
			c-0.099,0.055-0.195,0.251-0.176,0.362c0.14,0.806,0.31,1.607,0.475,2.431c0.859,0,1.74,0,2.62,0
			C15.59,6.57,14.93,4.667,14.251,3.947z M1.439,7.584c0.934,0,1.815,0,2.641,0c0.176-0.849,0.351-1.662,0.505-2.478
			c0.017-0.09-0.058-0.252-0.137-0.296c-0.557-0.31-1.125-0.598-1.709-0.903C1.95,5.013,1.534,6.225,1.439,7.584z M14.279,12.077
			c0.796-1.114,1.172-2.329,1.277-3.658c-0.935,0-1.815,0-2.64,0c-0.166,0.838-0.331,1.64-0.475,2.445
			c-0.017,0.093,0.053,0.257,0.131,0.301C13.117,11.473,13.674,11.758,14.279,12.077z M4.081,8.423c-0.849,0-1.736,0-2.644,0
			c0.106,1.354,0.502,2.564,1.294,3.647c0.584-0.309,1.138-0.595,1.683-0.899c0.078-0.043,0.167-0.181,0.153-0.258
			C4.418,10.087,4.249,9.263,4.081,8.423z M8.108,8.42c-1.084,0-2.118,0-3.233,0c0.138,0.799,0.27,1.56,0.41,2.366
			c0.947-0.162,1.815-0.306,2.681-0.468c0.06-0.011,0.134-0.15,0.136-0.231C8.114,9.542,8.108,8.997,8.108,8.42z M8.895,7.582
			c1.072,0,2.097,0,3.23,0c-0.144-0.742-0.269-1.443-0.429-2.136c-0.019-0.083-0.236-0.186-0.345-0.17
			c-0.748,0.11-1.494,0.242-2.236,0.387c-0.086,0.017-0.207,0.157-0.21,0.243C8.886,6.453,8.895,7,8.895,7.582z M5.302,5.213
			C5.16,6.025,5.025,6.791,4.886,7.584c1.135,0,2.157,0,3.217,0c0-0.59,0.005-1.16-0.007-1.729
			C8.095,5.792,8.009,5.684,7.948,5.673C7.095,5.517,6.239,5.374,5.302,5.213z M8.908,8.417c0,0.633,0,1.242,0,1.886
			c0.915,0.158,1.821,0.315,2.805,0.485c0.138-0.81,0.268-1.572,0.405-2.371C11.003,8.417,9.976,8.417,8.908,8.417z M8.08,14.961
			c0-1.319,0-2.563,0-3.892c-0.835,0.152-1.629,0.296-2.472,0.449C6.194,12.901,6.985,13.996,8.08,14.961z M11.39,11.508
			c-0.862-0.151-1.649-0.289-2.473-0.433c0,1.332,0,2.573,0,3.887C10.012,13.995,10.808,12.897,11.39,11.508z M8.093,1.097
			c-1.088,0.969-1.888,2.045-2.454,3.4c0.85,0.146,1.636,0.281,2.454,0.421C8.093,3.61,8.093,2.399,8.093,1.097z M11.362,4.49
			C10.78,3.15,10.005,2.058,8.916,1.117c0,1.288,0,2.504,0,3.804C9.739,4.776,10.525,4.637,11.362,4.49z M12.174,4.168
			c0.497-0.264,1.041-0.553,1.616-0.859c-1.01-1.094-2.166-1.816-3.537-2.135C10.881,2.153,11.51,3.132,12.174,4.168z
			 M6.838,1.148C5.364,1.503,4.206,2.22,3.207,3.311c0.587,0.31,1.132,0.598,1.672,0.883c0.306-0.548,0.567-1.072,0.882-1.562
			C6.076,2.142,6.445,1.685,6.838,1.148z M6.699,14.825c-0.629-0.985-1.262-1.976-1.906-2.984
			c-0.495,0.264-1.027,0.548-1.587,0.847C4.215,13.773,5.361,14.491,6.699,14.825z M10.293,14.835
			c1.355-0.367,2.511-1.065,3.494-2.15c-0.57-0.304-1.103-0.588-1.584-0.845C11.556,12.855,10.929,13.837,10.293,14.835z"/>
	</g>
	<text style="visibility:hidden;">Web Resource</text>
</svg>
